<mxfile host="app.diagrams.net" modified="2024-02-20T13:20:08.066Z" agent="Mozilla/5.0 (Windows NT 10.0; Win64; x64) AppleWebKit/537.36 (KHTML, like Gecko) Chrome/121.0.0.0 Safari/537.36 Edg/121.0.0.0" etag="KzbGRWsqugVddSzvukrL" version="23.1.5" type="github">
  <diagram name="Page-1" id="vEHWdyXFffyfuF_CzlAs">
    <mxGraphModel dx="1386" dy="793" grid="1" gridSize="10" guides="1" tooltips="1" connect="1" arrows="1" fold="1" page="1" pageScale="1" pageWidth="827" pageHeight="1169" math="0" shadow="0">
      <root>
        <mxCell id="0" />
        <mxCell id="1" parent="0" />
        <mxCell id="l6cs23k7FNpQOjLX6r31-1" value="" style="ellipse;html=1;shape=startState;fillColor=#000000;strokeColor=#ff0000;" vertex="1" parent="1">
          <mxGeometry x="230" y="130" width="30" height="30" as="geometry" />
        </mxCell>
        <mxCell id="l6cs23k7FNpQOjLX6r31-2" value="" style="edgeStyle=orthogonalEdgeStyle;html=1;verticalAlign=bottom;endArrow=open;endSize=8;strokeColor=#ff0000;rounded=0;" edge="1" source="l6cs23k7FNpQOjLX6r31-1" parent="1">
          <mxGeometry relative="1" as="geometry">
            <mxPoint x="245" y="220" as="targetPoint" />
          </mxGeometry>
        </mxCell>
        <mxCell id="l6cs23k7FNpQOjLX6r31-3" value="Point mort" style="rounded=1;whiteSpace=wrap;html=1;arcSize=40;fontColor=#000000;fillColor=#ffffc0;strokeColor=#ff0000;" vertex="1" parent="1">
          <mxGeometry x="185" y="220" width="120" height="40" as="geometry" />
        </mxCell>
        <mxCell id="l6cs23k7FNpQOjLX6r31-4" value="" style="edgeStyle=orthogonalEdgeStyle;html=1;verticalAlign=bottom;endArrow=open;endSize=8;strokeColor=#ff0000;rounded=0;" edge="1" source="l6cs23k7FNpQOjLX6r31-3" parent="1">
          <mxGeometry relative="1" as="geometry">
            <mxPoint x="245" y="320" as="targetPoint" />
          </mxGeometry>
        </mxCell>
      </root>
    </mxGraphModel>
  </diagram>
</mxfile>
